Coordinates
version=1
nRows=12
nColumns=28
inDegrees=yes

Units are S.I. units (second, meters, Newtons, ...)
Angles are in degrees.

endheader
time	pelvis_tilt	pelvis_list	pelvis_rotation	pelvis_tx	pelvis_ty	pelvis_tz	hip_flexion_r	hip_adduction_r	hip_rotation_r	knee_angle_r	ankle_angle_r	subtalar_angle_r	mtp_angle_r	hip_flexion_l	hip_adduction_l	hip_rotation_l	knee_angle_l	socket_flexion	socket_adduction	socket_rotation	socket_tx	socket_ty	socket_tz	foot_flex	lumbar_extension	lumbar_bending	lumbar_rotation
      0.62500000	      1.03290095	     -5.26995742	      5.76555680	     -0.00601208	      0.99087398	      0.26124330	     21.83393221	      5.74634061	     -7.80835506	     -3.83677045	     17.45177261	    -17.32340221	    -17.38419386	    -25.47471062	    -10.11089237	     -5.04450309	      0.17548830	      2.75411426	      5.58672273	     22.91831181	     -0.00952077	      0.00245374	     -0.00449609	      8.01163740	    -10.46361279	      6.05170963	     -3.75312416
      0.62916667	      1.03241384	     -5.26984603	      5.76535561	     -0.00602845	      0.99087188	      0.26124907	     21.83356539	      5.74627144	     -7.80833269	     -3.83690392	     17.45180790	    -17.32340807	    -17.38408798	    -25.47476829	    -10.11106856	     -5.04448402	      0.17553743	      2.75415980	      5.58669018	     22.91831181	     -0.00951801	      0.00245464	     -0.00449387	      8.01164282	    -10.46349667	      6.05186027	     -3.75310238
      0.63333333	      1.06704538	     -5.35714544	      5.92206918	      0.00034065	      0.98993129	      0.26123892	     21.94333931	      5.84004478	     -7.52672000	     -4.52149678	     17.20966990	    -17.31286084	    -17.35734143	    -25.63057685	    -10.19698569	     -4.94292742	      0.00161758	      3.01939854	      5.52491335	     22.91831181	     -0.00845330	      0.00241098	     -0.00385946	      7.95925209	    -10.44773132	      6.29952000	     -3.76945852
      0.63750000	      1.11384502	     -5.45070174	      5.86416266	      0.00662279	      0.98895761	      0.26174567	     22.28923508	      6.00336979	     -7.49278731	     -5.67195578	     16.69898369	    -17.50638173	    -17.21947048	    -25.81654236	    -10.30629850	     -5.20057465	     -0.17707484	      3.29510801	      5.59019102	     22.91831181	     -0.00737222	      0.00256524	     -0.00435446	      7.87450937	    -10.46490485	      6.45808021	     -3.87950849
      0.64166667	      1.12242290	     -5.56937364	      5.86769886	      0.01297030	      0.98797679	      0.26209978	     22.58243932	      6.17133673	     -7.33091671	     -6.66416906	     16.22434941	    -17.62235067	    -16.97996486	    -25.92949987	    -10.42651235	     -5.33355194	     -0.35671389	      3.61168455	      5.62134266	     22.91831181	     -0.00611977	      0.00260646	     -0.00450084	      7.77072998	    -10.42876324	      6.68333448	     -3.90921955
      0.64583333	      1.13122336	     -5.69614790	      5.86962726	      0.01933145	      0.98704656	      0.26244980	     22.86786587	      6.34343588	     -7.17705977	     -7.65539000	     15.70026743	    -17.73957658	    -16.67124500	    -25.99988356	    -10.55501939	     -5.47095403	     -0.56381199	      3.95830558	      5.66723274	     22.91831181	     -0.00462589	      0.00268499	     -0.00472605	      7.64772071	    -10.38588438	      6.91832631	     -3.91328719
      0.65000000	      1.14772309	     -5.84372517	      5.85115577	      0.02565544	      0.98613648	      0.26274085	     23.16158937	      6.53092579	     -7.03776777	     -8.67904536	     15.13149598	    -17.86520677	    -16.30821085	    -26.04213834	    -10.69510923	     -5.62164963	     -0.79847884	      4.33441682	      5.71453523	     22.91831181	     -0.00296312	      0.00274615	     -0.00509126	      7.49095808	    -10.35642104	      7.14859483	     -3.90709106
      0.65416667	      1.14686589	     -5.97318385	      5.83711121	      0.03208577	      0.98529641	      0.26331739	     23.45438577	      6.72415107	     -6.89839212	     -9.69273592	     14.54580816	    -17.99606333	    -15.86472985	    -26.04674533	    -10.83476188	     -5.78381298	     -1.04670077	      4.72722641	      5.78310421	     22.91831181	     -0.00118664	      0.00286926	     -0.00536262	      7.31751960	    -10.30077721	      7.39817644	     -3.87764964
      0.65833333	      1.16229094	     -6.13061828	      5.81037661	      0.03847667	      0.98450686	      0.26374961	     23.73064020	      6.93344493	     -6.76576401	    -10.71389270	     13.95224076	    -18.11813359	    -15.40341934	    -26.01737098	    -10.98746072	     -5.95171101	     -1.33642384	      5.15861960	      5.83472484	     22.91831181	      0.00083848	      0.00296964	     -0.00578057	      7.10792265	    -10.27000662	      7.64544387	     -3.84035117
      0.66250000	      1.19244663	     -6.29546805	      5.77250308	      0.04486890	      0.98382639	      0.26429857	     23.98866926	      7.16007858	     -6.64587708	    -11.73107224	     13.37286449	    -18.22807149	    -14.95455876	    -25.96759150	    -11.14211753	     -6.11814491	     -1.66059642	      5.60698174	      5.88947438	     22.91831181	      0.00304595	      0.00318152	     -0.00604705	      6.86647830	    -10.26036042	      7.89872671	     -3.79673058
      0.66666667	      1.21584273	     -6.46362860	      5.71043607	      0.05130187	      0.98314925	      0.26483447	     24.25322886	      7.38491647	     -6.54390987	    -12.77526327	     12.77608716	    -18.34988920	    -14.42460141	    -25.89011771	    -11.30939580	     -6.33783979	     -2.00688610	      6.07372525	      5.97940709	     22.91831181	      0.00529245	      0.00340706	     -0.00661017	      6.60962371	    -10.22458756	      8.16519019	     -3.72730762
      0.67083333	      0.27048497	     -6.92060070	      5.35630574	      0.05852203	      0.98080430	      0.26594560	     25.50587442	      7.92789969	     -6.11637669	    -13.69573595	     10.90341963	    -19.29258213	     -8.73229494	    -24.92466426	    -11.80958487	     -6.75346808	     -1.56999672	      7.14318345	      6.58022981	     22.91831181	      0.00920675	      0.00361093	     -0.01002374	      6.25086327	     -8.94232740	      8.57865287	     -2.94186301
